<?xml version="1.0" encoding="utf-8"?>
<!-- Generator: Adobe Illustrator 28.3.0, SVG Export Plug-In . SVG Version: 6.00 Build 0)  -->
<svg version="1.1" id="Layer_1" xmlns="http://www.w3.org/2000/svg" xmlns:xlink="http://www.w3.org/1999/xlink" x="0px" y="0px"
	 viewBox="0 0 1920 1080" style="enable-background:new 0 0 1920 1080;" xml:space="preserve">
<style type="text/css">
	.Graphic_x0020_Style{fill:url(#SVGID_1_);}
	.st0{fill:url(#SVGID_00000181803383671744378410000006358450839299177103_);}
	.st1{fill:url(#SVGID_00000105428546702312805170000017075787576089568441_);}
	.st2{fill:url(#SVGID_00000033367985083248312300000013604703696153159841_);}
	.st3{fill:url(#SVGID_00000154409620400911421840000002118048267972121239_);}
	.st4{fill:url(#SVGID_00000045590113882479177800000011100842179787856556_);}
	.st5{fill:url(#SVGID_00000131348708670963433700000012150410747866836644_);}
	.st6{fill:url(#SVGID_00000023996959191112660840000016592431812382702984_);}
	.st7{fill:url(#SVGID_00000059997421300301515480000012357478782411538826_);}
	.st8{fill:url(#SVGID_00000116947769896737684830000010934122819166451863_);}
	.st9{fill:url(#SVGID_00000011737348370228481480000004928820670395606156_);}
	.st10{fill:url(#SVGID_00000041263734680491777000000008687096248575688633_);}
	.st11{fill:url(#SVGID_00000120531068242448576960000011258487560918700971_);}
	.st12{fill:url(#SVGID_00000049193898321463101010000006472407634954208675_);}
	.st13{fill:url(#SVGID_00000134207953870275176500000005923924511549764492_);}
	.st14{fill-rule:evenodd;clip-rule:evenodd;fill:url(#SVGID_00000101103391800931347390000008288389370552876969_);}
	.st15{fill-rule:evenodd;clip-rule:evenodd;fill:url(#SVGID_00000065071402408704672750000013947625662624777903_);}
	.st16{fill:url(#SVGID_00000168809045056896931120000011310906234391836856_);}
	.st17{fill:url(#SVGID_00000016071020058084061740000014963262958433342857_);}
	.st18{fill:url(#SVGID_00000012449923596291719010000007638814758654223530_);}
	.st19{fill:url(#SVGID_00000114042918670149309470000008225451057693817527_);}
	.st20{fill:url(#SVGID_00000132770771793037559440000003882246559227294138_);}
	.st21{fill:url(#SVGID_00000070105927467517441380000003830918154816476322_);}
	.st22{fill:url(#SVGID_00000135664212993969087230000008215963048404685496_);}
	.st23{fill:url(#SVGID_00000073723576323282278830000004370288723979819177_);}
	.st24{fill:url(#SVGID_00000179647098062904201260000014062258168862843829_);}
</style>
<linearGradient id="SVGID_1_" gradientUnits="userSpaceOnUse" x1="0" y1="0" x2="1" y2="0">
	<stop  offset="0" style="stop-color:#00247E"/>
	<stop  offset="1" style="stop-color:#0C5ADB"/>
</linearGradient>
<g>
	<g>
		<g>
			
				<linearGradient id="SVGID_00000168084609271153890360000001796432178367656861_" gradientUnits="userSpaceOnUse" x1="593.2349" y1="769.7871" x2="1361.7578" y2="769.7871">
				<stop  offset="0" style="stop-color:#00247E"/>
				<stop  offset="1" style="stop-color:#0C5ADB"/>
			</linearGradient>
			<path style="fill:url(#SVGID_00000168084609271153890360000001796432178367656861_);" d="M621.3,785.62h-4.53l-4.95-21.33
				l-5.07,21.33h-4.49l-9.02-32.23h5.82l5.41,22.5l5.24-22.5h4.16l5.16,22.5l5.45-22.5h5.82L621.3,785.62z"/>
			
				<linearGradient id="SVGID_00000148646189604965061640000014019241972342636691_" gradientUnits="userSpaceOnUse" x1="593.2349" y1="769.7871" x2="1361.7578" y2="769.7871">
				<stop  offset="0" style="stop-color:#00247E"/>
				<stop  offset="1" style="stop-color:#0C5ADB"/>
			</linearGradient>
			<path style="fill:url(#SVGID_00000148646189604965061640000014019241972342636691_);" d="M652.91,785.62v-32.23h16.51v5.71
				h-10.81v7.59h10.35v5.71h-10.35v7.5h10.81v5.71H652.91z"/>
			
				<linearGradient id="SVGID_00000167389444833088751250000018431977432354558354_" gradientUnits="userSpaceOnUse" x1="593.2349" y1="769.7871" x2="1361.7578" y2="769.7871">
				<stop  offset="0" style="stop-color:#00247E"/>
				<stop  offset="1" style="stop-color:#0C5ADB"/>
			</linearGradient>
			<path style="fill:url(#SVGID_00000167389444833088751250000018431977432354558354_);" d="M746.4,785.62l-3.28-8.33h-10.94
				l-3.41,8.33h-6.28l12.81-32.23h4.49l12.89,32.23H746.4z M737.54,761.81l-3.28,9.77h6.57L737.54,761.81z"/>
			
				<linearGradient id="SVGID_00000128480742779148563890000010747809799796984735_" gradientUnits="userSpaceOnUse" x1="593.2349" y1="769.7871" x2="1361.7578" y2="769.7871">
				<stop  offset="0" style="stop-color:#00247E"/>
				<stop  offset="1" style="stop-color:#0C5ADB"/>
			</linearGradient>
			<path style="fill:url(#SVGID_00000128480742779148563890000010747809799796984735_);" d="M792.6,783.83
				c-2.5,1.31-5.28,1.79-9.94,1.79h-7.15v-32.23h7.03c4.82,0,8.48,0.79,10.89,2.31c4.28,2.7,6.7,7.76,6.7,13.87
				C800.13,776.07,797.34,781.39,792.6,783.83z M789.69,760.41c-1.79-0.96-3.74-1.31-7.36-1.31h-1.12v20.8h1.25
				c3.41,0,5.78-0.44,7.48-1.44c2.74-1.57,4.45-5.02,4.45-8.9C794.39,765.43,792.6,761.98,789.69,760.41z"/>
			
				<linearGradient id="SVGID_00000002363385746749625100000014667785794532753802_" gradientUnits="userSpaceOnUse" x1="593.2349" y1="769.7871" x2="1361.7578" y2="769.7871">
				<stop  offset="0" style="stop-color:#00247E"/>
				<stop  offset="1" style="stop-color:#0C5ADB"/>
			</linearGradient>
			<path style="fill:url(#SVGID_00000002363385746749625100000014667785794532753802_);" d="M841.42,783.83
				c-2.5,1.31-5.28,1.79-9.94,1.79h-7.15v-32.23h7.03c4.82,0,8.48,0.79,10.89,2.31c4.28,2.7,6.7,7.76,6.7,13.87
				C848.95,776.07,846.16,781.39,841.42,783.83z M838.51,760.41c-1.79-0.96-3.74-1.31-7.36-1.31h-1.12v20.8h1.25
				c3.41,0,5.78-0.44,7.48-1.44c2.74-1.57,4.45-5.02,4.45-8.9C843.21,765.43,841.42,761.98,838.51,760.41z"/>
			
				<linearGradient id="SVGID_00000088821489507852464790000004530295188506991255_" gradientUnits="userSpaceOnUse" x1="593.2349" y1="769.7871" x2="1361.7578" y2="769.7871">
				<stop  offset="0" style="stop-color:#00247E"/>
				<stop  offset="1" style="stop-color:#0C5ADB"/>
			</linearGradient>
			<path style="fill:url(#SVGID_00000088821489507852464790000004530295188506991255_);" d="M925.3,785.62l-3.28-8.33h-10.94
				l-3.41,8.33h-6.28l12.81-32.23h4.49l12.89,32.23H925.3z M916.44,761.81l-3.28,9.77h6.57L916.44,761.81z"/>
			
				<linearGradient id="SVGID_00000021803167004869804290000016034243659146478733_" gradientUnits="userSpaceOnUse" x1="593.2349" y1="769.7871" x2="1361.7578" y2="769.7871">
				<stop  offset="0" style="stop-color:#00247E"/>
				<stop  offset="1" style="stop-color:#0C5ADB"/>
			</linearGradient>
			<path style="fill:url(#SVGID_00000021803167004869804290000016034243659146478733_);" d="M1003.73,785.62l-12.85-23.42v23.42
				h-5.7v-32.23h6.49l12.72,23.46v-23.46h5.7v32.23H1003.73z"/>
			
				<linearGradient id="SVGID_00000109743930020199092510000008442830026783959994_" gradientUnits="userSpaceOnUse" x1="593.2349" y1="769.7871" x2="1361.7578" y2="769.7871">
				<stop  offset="0" style="stop-color:#00247E"/>
				<stop  offset="1" style="stop-color:#0C5ADB"/>
			</linearGradient>
			<path style="fill:url(#SVGID_00000109743930020199092510000008442830026783959994_);" d="M1035.68,785.62v-32.23h16.51v5.71
				h-10.81v7.59h10.35v5.71h-10.35v7.5h10.81v5.71H1035.68z"/>
			
				<linearGradient id="SVGID_00000161630388145024083490000013182744744457104047_" gradientUnits="userSpaceOnUse" x1="593.2349" y1="769.7871" x2="1361.7578" y2="769.7871">
				<stop  offset="0" style="stop-color:#00247E"/>
				<stop  offset="1" style="stop-color:#0C5ADB"/>
			</linearGradient>
			<path style="fill:url(#SVGID_00000161630388145024083490000013182744744457104047_);" d="M1102.54,785.62h-4.53l-4.95-21.33
				l-5.07,21.33h-4.49l-9.02-32.23h5.82l5.41,22.5l5.24-22.5h4.16l5.16,22.5l5.45-22.5h5.82L1102.54,785.62z"/>
			
				<linearGradient id="SVGID_00000143608761841188950230000005906117338498949777_" gradientUnits="userSpaceOnUse" x1="593.2349" y1="769.7871" x2="1361.7578" y2="769.7871">
				<stop  offset="0" style="stop-color:#00247E"/>
				<stop  offset="1" style="stop-color:#0C5ADB"/>
			</linearGradient>
			<path style="fill:url(#SVGID_00000143608761841188950230000005906117338498949777_);" d="M1179.07,785.62h-4.66l-11.97-32.23
				h5.99l8.27,24.51l8.28-24.51h5.99L1179.07,785.62z"/>
			
				<linearGradient id="SVGID_00000089557002051951277870000010271273384706535821_" gradientUnits="userSpaceOnUse" x1="593.2349" y1="769.7871" x2="1361.7578" y2="769.7871">
				<stop  offset="0" style="stop-color:#00247E"/>
				<stop  offset="1" style="stop-color:#0C5ADB"/>
			</linearGradient>
			<path style="fill:url(#SVGID_00000089557002051951277870000010271273384706535821_);" d="M1232.21,785.62l-3.29-8.33h-10.94
				l-3.41,8.33h-6.28l12.81-32.23h4.49l12.89,32.23H1232.21z M1223.36,761.81l-3.28,9.77h6.57L1223.36,761.81z"/>
			
				<linearGradient id="SVGID_00000000196055494924079820000006787920745131419049_" gradientUnits="userSpaceOnUse" x1="593.2349" y1="769.7871" x2="1361.7578" y2="769.7871">
				<stop  offset="0" style="stop-color:#00247E"/>
				<stop  offset="1" style="stop-color:#0C5ADB"/>
			</linearGradient>
			<path style="fill:url(#SVGID_00000000196055494924079820000006787920745131419049_);" d="M1261.33,785.62v-32.23h5.7v26.51h9.4
				v5.71H1261.33z"/>
			
				<linearGradient id="SVGID_00000044869708082216939980000008335275747338536105_" gradientUnits="userSpaceOnUse" x1="593.2349" y1="769.7871" x2="1361.7578" y2="769.7871">
				<stop  offset="0" style="stop-color:#00247E"/>
				<stop  offset="1" style="stop-color:#0C5ADB"/>
			</linearGradient>
			<path style="fill:url(#SVGID_00000044869708082216939980000008335275747338536105_);" d="M1309.28,786.18
				c-6.03,0-10.35-4.19-10.35-12.39v-20.41h5.7v20.41c0,5.02,1.79,6.63,4.7,6.63c2.83,0,4.66-1.57,4.66-6.63v-20.41h5.7v20.41
				C1319.67,782.04,1315.35,786.18,1309.28,786.18z"/>
			
				<linearGradient id="SVGID_00000146472913564296335900000014033738047317255864_" gradientUnits="userSpaceOnUse" x1="593.2349" y1="769.7871" x2="1361.7578" y2="769.7871">
				<stop  offset="0" style="stop-color:#00247E"/>
				<stop  offset="1" style="stop-color:#0C5ADB"/>
			</linearGradient>
			<path style="fill:url(#SVGID_00000146472913564296335900000014033738047317255864_);" d="M1345.25,785.62v-32.23h16.51v5.71
				h-10.81v7.59h10.35v5.71h-10.35v7.5h10.81v5.71H1345.25z"/>
		</g>
	</g>
	<g>
		
			<linearGradient id="SVGID_00000155839729171795672850000013750293469464193436_" gradientUnits="userSpaceOnUse" x1="701.4542" y1="406.5549" x2="1218.1816" y2="406.5549">
			<stop  offset="0" style="stop-color:#00247E"/>
			<stop  offset="1" style="stop-color:#0C5ADB"/>
		</linearGradient>
		<path style="fill-rule:evenodd;clip-rule:evenodd;fill:url(#SVGID_00000155839729171795672850000013750293469464193436_);" d="
			M1218.18,288.36l-283.38-0.17c15.96,18,15.74,37.03,15.74,37.03h-0.01c-7.69-26.13-25.81-45.1-63.47-44.38l-95.19-0.18
			c-66.15,0.58-83.19,67.6-88.59,121.96c-4.63,46.64-5.24,118.27,58.74,118.27h82.29l6.17,11.55l68.98-0.3l-10.69-19.3
			c37.13-23.18,41.13-75.78,44.74-116.4c2.17-19.65,2.98-40.63-0.23-59.25h259.76L1218.18,288.36z M896.7,398.19
			c-7.12,81.65-35.02,69.08-101.59,69.25l-61.06,0.31l33.63-9.1c-3.88-3.88-6.76-8.88-8.63-14.8
			c-2.13-4.95-10.27-111.96,48.21-113.1C873.72,329.44,903.23,323.36,896.7,398.19z"/>
		
			<linearGradient id="SVGID_00000100367365496774496130000002090753940521288598_" gradientUnits="userSpaceOnUse" x1="964.7369" y1="452.3949" x2="1209.0317" y2="452.3949">
			<stop  offset="0" style="stop-color:#00247E"/>
			<stop  offset="1" style="stop-color:#0C5ADB"/>
		</linearGradient>
		<path style="fill-rule:evenodd;clip-rule:evenodd;fill:url(#SVGID_00000100367365496774496130000002090753940521288598_);" d="
			M1209.03,380.44l-4,38.22h-0.04l-10.62,106.25h-169.69c-69.4-2.04-63.87-94.81-54.36-145.04h58.47
			c-4.51,17.6-13.4,67.02,0.56,82.83l-35.02,9.47l61.07-0.3l90.66,0.17l4.83-47.1l23.36-6.32l-22.72,0.11l0.01-0.07h-26.96
			l4.13-38.45L1209.03,380.44z"/>
	</g>
	<g>
		<g>
			
				<linearGradient id="SVGID_00000025442752071225769900000000719921167578984855_" gradientUnits="userSpaceOnUse" x1="494.7485" y1="662.1289" x2="1425.2515" y2="662.1289">
				<stop  offset="0" style="stop-color:#00247E"/>
				<stop  offset="1" style="stop-color:#0C5ADB"/>
			</linearGradient>
			<path style="fill:url(#SVGID_00000025442752071225769900000000719921167578984855_);" d="M589.08,696.47l15.66,16.58
				l-11.31,11.18l-17.76-18.94c-7.37,3.42-15.79,5.26-25,5.26c-33.28,0-55.91-24.34-55.91-55.25c0-30.92,22.63-55.26,55.91-55.26
				c33.29,0,55.91,24.34,55.91,55.26C606.57,671.73,600.13,686.34,589.08,696.47z M550.66,623.06c-18.02,0-30.26,13.16-30.26,32.23
				c0,19.08,12.24,32.23,30.26,32.23c2.63,0,5.26-0.26,7.63-0.79l-9.87-10.66l11.31-11.05l12.76,13.68
				c5.26-5.66,8.42-13.81,8.42-23.42C580.92,636.21,568.68,623.06,550.66,623.06z"/>
			
				<linearGradient id="SVGID_00000000199657693712985000000005184925648426081697_" gradientUnits="userSpaceOnUse" x1="494.7485" y1="662.1289" x2="1425.2515" y2="662.1289">
				<stop  offset="0" style="stop-color:#00247E"/>
				<stop  offset="1" style="stop-color:#0C5ADB"/>
			</linearGradient>
			<path style="fill:url(#SVGID_00000000199657693712985000000005184925648426081697_);" d="M694.32,624.77v-22.64h-71.3v22.64
				H694.32z M647.36,686.2v-20.39h42.63v-22.76h-66.97v65.77h71.43V686.2H647.36z"/>
			
				<linearGradient id="SVGID_00000115501831904844619310000008817896494597654180_" gradientUnits="userSpaceOnUse" x1="494.7485" y1="662.1289" x2="1425.2515" y2="662.1289">
				<stop  offset="0" style="stop-color:#00247E"/>
				<stop  offset="1" style="stop-color:#0C5ADB"/>
			</linearGradient>
			<path style="fill:url(#SVGID_00000115501831904844619310000008817896494597654180_);" d="M784.84,624.77v-22.64h-71.31v22.64
				H784.84z M737.86,686.2v-20.39h42.63v-22.76h-66.96v65.77h71.45V686.2H737.86z"/>
			
				<linearGradient id="SVGID_00000152245016212030618270000000885177003654137013_" gradientUnits="userSpaceOnUse" x1="494.7485" y1="662.1289" x2="1425.2515" y2="662.1289">
				<stop  offset="0" style="stop-color:#00247E"/>
				<stop  offset="1" style="stop-color:#0C5ADB"/>
			</linearGradient>
			<path style="fill:url(#SVGID_00000152245016212030618270000000885177003654137013_);" d="M846.93,708.83l-18.55-86.96v86.96
				h-24.34V602.14h40.52l16.31,85.78l16.58-85.78h40.26v106.69h-24.34v-86.96l-18.42,86.96H846.93z"/>
			
				<linearGradient id="SVGID_00000169519156695419282150000009106722096645342634_" gradientUnits="userSpaceOnUse" x1="494.7485" y1="662.1289" x2="1425.2515" y2="662.1289">
				<stop  offset="0" style="stop-color:#00247E"/>
				<stop  offset="1" style="stop-color:#0C5ADB"/>
			</linearGradient>
			<path style="fill:url(#SVGID_00000169519156695419282150000009106722096645342634_);" d="M996.24,602.14h-29.99l-38.02,106.69h25
				l4.53-13.42l2.57-7.62l7.68-22.77h-0.05l4.31-12.63l8.97-26.31l1.17,3.49l7.71,22.82l4.28,12.63l13.29,39.2l0.01,0.05l1.57,4.57
				h24.99L996.24,602.14z"/>
			
				<linearGradient id="SVGID_00000154392275366089944900000010277855816398775213_" gradientUnits="userSpaceOnUse" x1="494.7485" y1="662.1289" x2="1425.2515" y2="662.1289">
				<stop  offset="0" style="stop-color:#00247E"/>
				<stop  offset="1" style="stop-color:#0C5ADB"/>
			</linearGradient>
			<path style="fill:url(#SVGID_00000154392275366089944900000010277855816398775213_);" d="M1072.42,619.77h-35.52v-17.63h90.12
				v17.63h-35.52v89.07h-19.08V619.77z"/>
			
				<linearGradient id="SVGID_00000118394273651694420790000001733941241582195638_" gradientUnits="userSpaceOnUse" x1="494.7485" y1="662.1289" x2="1425.2515" y2="662.1289">
				<stop  offset="0" style="stop-color:#00247E"/>
				<stop  offset="1" style="stop-color:#0C5ADB"/>
			</linearGradient>
			<path style="fill:url(#SVGID_00000118394273651694420790000001733941241582195638_);" d="M1142.8,602.14h68.15v17.63h-49.2v25.39
				h44.6v17.89h-44.6v28.15h49.47v17.63h-68.41V602.14z"/>
			
				<linearGradient id="SVGID_00000046335997084555618470000005465869219423352989_" gradientUnits="userSpaceOnUse" x1="494.7485" y1="662.1289" x2="1425.2515" y2="662.1289">
				<stop  offset="0" style="stop-color:#00247E"/>
				<stop  offset="1" style="stop-color:#0C5ADB"/>
			</linearGradient>
			<path style="fill:url(#SVGID_00000046335997084555618470000005465869219423352989_);" d="M1283.04,618.19
				c-4.82,0-9.41,0.75-13.75,2.24c-4.34,1.49-8.16,3.77-11.45,6.84c-3.29,3.07-5.9,6.93-7.83,11.58
				c-1.93,4.65-2.89,10.13-2.89,16.44s0.96,11.8,2.89,16.44c1.93,4.65,4.54,8.53,7.83,11.64c3.29,3.11,7.1,5.42,11.45,6.91
				c4.34,1.49,8.92,2.24,13.75,2.24c5.26,0,10.15-0.72,14.67-2.17c4.52-1.45,8.7-3.4,12.56-5.85l7.37,16.84
				c-4.56,2.81-9.91,5.02-16.05,6.64c-6.14,1.62-12.59,2.43-19.34,2.43c-8.42,0-16.05-1.38-22.89-4.14
				c-6.84-2.76-12.65-6.62-17.43-11.58c-4.78-4.95-8.47-10.79-11.05-17.5c-2.59-6.71-3.88-14.01-3.88-21.9s1.29-15.2,3.88-21.9
				c2.59-6.71,6.27-12.54,11.05-17.5c4.78-4.95,10.59-8.81,17.43-11.58c6.84-2.76,14.47-4.14,22.89-4.14c6.75,0,13.2,0.83,19.34,2.5
				c6.14,1.67,11.49,3.9,16.05,6.71l-7.37,16.71c-3.86-2.37-8.05-4.28-12.56-5.72C1293.19,618.91,1288.3,618.19,1283.04,618.19z"/>
			
				<linearGradient id="SVGID_00000118399324593110822460000000829925572271798920_" gradientUnits="userSpaceOnUse" x1="494.7485" y1="662.1289" x2="1425.2515" y2="662.1289">
				<stop  offset="0" style="stop-color:#00247E"/>
				<stop  offset="1" style="stop-color:#0C5ADB"/>
			</linearGradient>
			<path style="fill:url(#SVGID_00000118399324593110822460000000829925572271798920_);" d="M1336.05,708.83V602.14H1355v43.02
				h51.18v-43.02h19.08v106.69h-19.08v-45.78H1355v45.78H1336.05z"/>
		</g>
	</g>
</g>
</svg>
